<?xml version="1.0" encoding="UTF-8" standalone="no"?>
<!-- Generator: Adobe Illustrator 21.0.2, svg Export Plug-In . svg Version: 6.00 Build 0)  -->

<svg
   xmlns:dc="http://purl.org/dc/elements/1.1/"
   xmlns:cc="http://creativecommons.org/ns#"
   xmlns:rdf="http://www.w3.org/1999/02/22-rdf-syntax-ns#"
   xmlns:svg="http://www.w3.org/2000/svg"
   xmlns="http://www.w3.org/2000/svg"
   xmlns:sodipodi="http://sodipodi.sourceforge.net/DTD/sodipodi-0.dtd"
   xmlns:inkscape="http://www.inkscape.org/namespaces/inkscape"
   version="1.1"
   id="Layer_1"
   x="0px"
   y="0px"
   width="100%"
   height="100%"
   viewBox="0 0 192 192"
   xml:space="preserve"
   preserveAspectRatio="xMinYMin"
   sodipodi:docname="youtube-music-icon.svg"
   inkscape:version="0.92.4 (5da689c313, 2019-01-14)"><metadata
   id="metadata110"><rdf:RDF><cc:Work
       rdf:about=""><dc:format>image/svg+xml</dc:format><dc:type
         rdf:resource="http://purl.org/dc/dcmitype/StillImage" /></cc:Work></rdf:RDF></metadata><defs
   id="defs108" /><sodipodi:namedview
   pagecolor="#ffffff"
   bordercolor="#666666"
   borderopacity="1"
   objecttolerance="10"
   gridtolerance="10"
   guidetolerance="10"
   inkscape:pageopacity="0"
   inkscape:pageshadow="2"
   inkscape:window-width="1920"
   inkscape:window-height="1001"
   id="namedview106"
   showgrid="false"
   inkscape:zoom="4.2083333"
   inkscape:cx="56.792079"
   inkscape:cy="96"
   inkscape:window-x="-9"
   inkscape:window-y="-9"
   inkscape:window-maximized="1"
   inkscape:current-layer="Layer_1" />
<g
   id="XMLID_167_">
	<circle
   id="XMLID_791_"
   fill="#324b4e"
   cx="96"
   cy="96"
   r="88" />
	<g
   id="XMLID_41_">
		<path
   id="XMLID_42_"
   d="M96,54.04c23.14,0,41.96,18.82,41.96,41.96S119.14,137.96,96,137.96S54.04,119.14,54.04,96    S72.86,54.04,96,54.04 M96,50c-25.41,0-46,20.59-46,46s20.59,46,46,46s46-20.59,46-46S121.41,50,96,50L96,50z"
   fill="#FFFFFF" />
	</g>
	<polygon
   id="XMLID_274_"
   fill="#FFFFFF"
   points="80,119 119,95 80,73  " />
</g>
<path
   style="fill:none;stroke-width:0.23762377"
   d="m 92.910891,141.7275 c -7.630263,-0.40497 -15.706548,-3.14092 -22.256346,-7.53962 -6.918817,-4.64653 -11.90487,-10.29009 -15.662321,-17.7277 -8.649194,-17.120473 -5.53741,-38.038728 7.738221,-52.01843 16.657454,-17.540878 44.093695,-19.147406 62.616085,-3.666484 16.23801,13.571639 21.13926,36.369928 11.87982,55.259314 -3.7896,7.73083 -9.09307,13.73295 -16.27585,18.41995 -8.39471,5.47782 -17.47692,7.83358 -28.039609,7.27297 z m 9.081969,-4.1141 c 14.7483,-2.2231 26.84444,-11.58647 32.79696,-25.38746 4.06344,-9.42112 4.28275,-21.387256 0.56826,-31.005311 -2.3919,-6.193416 -5.66102,-11.079856 -10.52465,-15.73152 -9.83016,-9.401724 -23.77742,-13.403894 -37.223514,-10.681302 -5.387577,1.090887 -11.479537,3.718022 -15.826746,6.825225 -2.614055,1.868417 -6.374063,5.373837 -8.324397,7.760756 -8.704925,10.653533 -11.626845,24.841366 -7.866807,38.198492 4.400108,15.63091 17.891034,27.46397 34.212817,30.00851 2.800607,0.43661 9.330389,0.44337 12.188077,0.0126 z"
   id="path3819"
   inkscape:connector-curvature="0" /><path
   style="fill:#ffffff;stroke-width:0.23762377"
   d="m 80.079208,96.043564 c 0,-12.492079 0.06534,-22.712871 0.145202,-22.712871 0.266285,0 38.33467,21.502499 38.34232,21.657229 0.006,0.127059 -37.689481,23.448858 -38.289773,23.689308 -0.108762,0.0436 -0.197749,-10.14159 -0.197749,-22.633666 z"
   id="path3821"
   inkscape:connector-curvature="0" /><path
   style="fill:#ffffff;stroke-width:0.23762377"
   d="m 80.079208,95.998339 c 0,-20.110861 0.04097,-22.702771 0.35694,-22.581521 0.196317,0.07533 5.355723,2.956533 11.465347,6.402665 6.109623,3.446132 14.607885,8.234549 18.885015,10.640928 4.27714,2.406378 7.77912,4.444675 7.78218,4.529549 0.005,0.143876 -38.142904,23.72687 -38.380829,23.72687 -0.05976,0 -0.108653,-10.22332 -0.108653,-22.718491 z"
   id="path3823"
   inkscape:connector-curvature="0" /><path
   style="fill:#ffffff;stroke-width:0.23762377"
   d="m 80.079208,95.998339 c 0,-21.144052 0.02756,-22.707916 0.397692,-22.565883 0.336754,0.129224 12.067774,6.717752 33.27914,18.690662 2.64305,1.491889 4.77831,2.802799 4.74501,2.913132 -0.0582,0.192827 -38.044147,23.68058 -38.297814,23.68058 -0.06822,0 -0.124028,-10.22332 -0.124028,-22.718491 z"
   id="path3827"
   inkscape:connector-curvature="0" /><path
   style="fill:#ffffff;stroke-width:0.23762377"
   d="m 80.079208,96.023762 c 0,-12.481188 0.08046,-22.693069 0.178805,-22.693069 0.161637,0 13.88775,7.69155 31.603177,17.709122 3.69197,2.087706 6.71277,3.866148 6.71287,3.952093 2.2e-4,0.170648 -0.42297,0.434591 -22.855796,14.255152 -8.453965,5.20837 -15.431193,9.46977 -15.504951,9.46977 -0.07376,0 -0.134105,-10.21188 -0.134105,-22.693068 z"
   id="path3829"
   inkscape:connector-curvature="0" /><path
   style="fill:#ffffff;stroke-width:0.23762377"
   d="m 80.079208,96.023762 c 0,-12.481188 0.08452,-22.693069 0.187834,-22.693069 0.157944,0 27.090318,15.102172 35.631018,19.979886 1.46868,0.838786 2.6412,1.616419 2.60559,1.728074 -0.0839,0.263098 -37.958727,23.678177 -38.300404,23.678177 -0.06822,0 -0.124038,-10.21188 -0.124038,-22.693068 z"
   id="path3831"
   inkscape:connector-curvature="0" /><path
   style="fill:#ffffff;stroke-width:0.23762377"
   d="m 80.079208,96.049186 c 0,-12.495171 0.08895,-22.718493 0.197658,-22.718493 0.177783,0 26.098854,14.529961 34.790054,19.50144 1.92641,1.101931 3.4731,2.095139 3.43708,2.207128 -0.036,0.11199 -2.30722,1.594405 -5.04712,3.294257 -11.56217,7.173242 -32.755527,20.195422 -33.054234,20.310042 -0.271445,0.10417 -0.323438,-3.52792 -0.323438,-22.594374 z"
   id="path3833"
   inkscape:connector-curvature="0" /><path
   style="fill:#ffffff;stroke-width:0.23762377"
   d="m 80.079208,96.049186 c 0,-12.495171 0.05773,-22.718493 0.128278,-22.718493 0.263146,0 2.305447,1.130315 17.763186,9.831067 19.427588,10.935273 20.613628,11.621704 20.530818,11.882378 -0.0364,0.114671 -2.73495,1.864825 -5.99673,3.88923 -11.71028,7.267932 -31.753343,19.576362 -32.086098,19.704052 -0.292731,0.11233 -0.339454,-2.99677 -0.339454,-22.588234 z"
   id="path3835"
   inkscape:connector-curvature="0" /><path
   style="fill:#ffffff;stroke-width:0.23762377;fill-opacity:0"
   d="m 80.079208,96.049186 c 0,-12.495171 0.05773,-22.718493 0.128278,-22.718493 0.274352,0 2.629553,1.300697 16.980633,9.377824 17.903391,10.076448 21.381861,12.076159 21.384281,12.293444 0.001,0.09148 -2.64468,1.812562 -5.87933,3.82464 -10.48686,6.523219 -31.887636,19.662399 -32.255689,19.803629 -0.317609,0.12188 -0.358173,-2.43547 -0.358173,-22.581044 z"
   id="path3837"
   inkscape:connector-curvature="0" /><path
   style="fill:#ffffff;fill-opacity:0;stroke-width:0.23762377"
   d="m 80.079208,96.049186 c 0,-12.495171 0.05773,-22.718493 0.128278,-22.718493 0.274352,0 2.629553,1.300697 16.980633,9.377824 17.903391,10.076448 21.381861,12.076159 21.384281,12.293444 0.001,0.09148 -2.64468,1.812562 -5.87933,3.82464 -10.48686,6.523219 -31.887636,19.662399 -32.255689,19.803629 -0.317609,0.12188 -0.358173,-2.43547 -0.358173,-22.581044 z"
   id="path4644"
   inkscape:connector-curvature="0" /><path
   style="fill:#ffffff;fill-opacity:0;stroke-width:0.23762377"
   d="m 80.079208,96.049186 c 0,-12.495171 0.05773,-22.718493 0.128278,-22.718493 0.274352,0 2.629553,1.300697 16.980633,9.377824 17.903391,10.076448 21.381861,12.076159 21.384281,12.293444 0.001,0.09148 -2.64468,1.812562 -5.87933,3.82464 -10.48686,6.523219 -31.887636,19.662399 -32.255689,19.803629 -0.317609,0.12188 -0.358173,-2.43547 -0.358173,-22.581044 z"
   id="path4646"
   inkscape:connector-curvature="0" /><path
   style="fill:#ffffff;fill-opacity:0;stroke-width:0.23762377"
   d="m 92.910891,141.7275 c -7.630263,-0.40497 -15.706548,-3.14092 -22.256346,-7.53962 -6.918817,-4.64653 -11.90487,-10.29009 -15.662321,-17.7277 -8.649194,-17.120473 -5.53741,-38.038728 7.738221,-52.01843 16.657454,-17.540878 44.093695,-19.147406 62.616085,-3.666484 16.23801,13.571639 21.13926,36.369928 11.87982,55.259314 -3.7896,7.73083 -9.09307,13.73295 -16.27585,18.41995 -8.39471,5.47782 -17.47692,7.83358 -28.039609,7.27297 z m 9.081969,-4.1141 c 14.7483,-2.2231 26.84444,-11.58647 32.79696,-25.38746 4.06344,-9.42112 4.28275,-21.387256 0.56826,-31.005311 -2.3919,-6.193416 -5.66102,-11.079856 -10.52465,-15.73152 -9.83016,-9.401724 -23.77742,-13.403894 -37.223514,-10.681302 -5.387577,1.090887 -11.479537,3.718022 -15.826746,6.825225 -2.614055,1.868417 -6.374063,5.373837 -8.324397,7.760756 -8.704925,10.653533 -11.626845,24.841366 -7.866807,38.198492 4.400108,15.63091 17.891034,27.46397 34.212817,30.00851 2.800607,0.43661 9.330389,0.44337 12.188077,0.0126 z"
   id="path4648"
   inkscape:connector-curvature="0" /><path
   style="fill:#ffffff;fill-opacity:0;stroke-width:0.23762377"
   d="m 80.079208,96.049186 c 0,-12.495171 0.05773,-22.718493 0.128278,-22.718493 0.274352,0 2.629553,1.300697 16.980633,9.377824 17.903391,10.076448 21.381861,12.076159 21.384281,12.293444 0.001,0.09148 -2.64468,1.812562 -5.87933,3.82464 -10.48686,6.523219 -31.887636,19.662399 -32.255689,19.803629 -0.317609,0.12188 -0.358173,-2.43547 -0.358173,-22.581044 z"
   id="path4650"
   inkscape:connector-curvature="0" /><path
   style="fill:#ffffff;fill-opacity:0;stroke-width:0.23762377"
   d="m 92.910891,141.7275 c -7.630263,-0.40497 -15.706548,-3.14092 -22.256346,-7.53962 -6.918817,-4.64653 -11.90487,-10.29009 -15.662321,-17.7277 -8.649194,-17.120473 -5.53741,-38.038728 7.738221,-52.01843 16.657454,-17.540878 44.093695,-19.147406 62.616085,-3.666484 16.23801,13.571639 21.13926,36.369928 11.87982,55.259314 -3.7896,7.73083 -9.09307,13.73295 -16.27585,18.41995 -8.39471,5.47782 -17.47692,7.83358 -28.039609,7.27297 z m 9.081969,-4.1141 c 14.7483,-2.2231 26.84444,-11.58647 32.79696,-25.38746 4.06344,-9.42112 4.28275,-21.387256 0.56826,-31.005311 -2.3919,-6.193416 -5.66102,-11.079856 -10.52465,-15.73152 -9.83016,-9.401724 -23.77742,-13.403894 -37.223514,-10.681302 -5.387577,1.090887 -11.479537,3.718022 -15.826746,6.825225 -2.614055,1.868417 -6.374063,5.373837 -8.324397,7.760756 -8.704925,10.653533 -11.626845,24.841366 -7.866807,38.198492 4.400108,15.63091 17.891034,27.46397 34.212817,30.00851 2.800607,0.43661 9.330389,0.44337 12.188077,0.0126 z"
   id="path4652"
   inkscape:connector-curvature="0" /></svg>